<svg height="512pt" viewBox="0 0 512 512.001" width="512pt" xmlns="http://www.w3.org/2000/svg"><path d="m491.382812 157.050781c-13.207031-30.953125-32.058593-58.722656-56.027343-82.535156-48.414063-48.09375-112.050781-74.515625-179.378907-74.515625-.558593 0-1.128906.00390625-1.6875.00390625-68.503906.44921875-132.703124 27.60156275-180.773437 76.45312475-48.058594 48.84375-74.160156 113.496094-73.5039062 182.054688.6562502 68.128906 27.5507812 131.914062 75.7343752 179.597656 48.152344 47.65625 112.15625 73.894531 180.253906 73.890625h.121094c49.886718-.019531 98.238281-14.410156 139.824218-41.605469l-21.890624-33.476562c-35.066407 22.933593-75.855469 35.0625-117.953126 35.082031-.035156 0-.0625 0-.097656 0-117.972656 0-214.859375-95.925781-215.992187-213.875-.558594-57.851562 21.46875-112.402344 62.015625-153.613281 40.558594-41.21875 94.726562-64.128907 152.523437-64.507813.472657-.003906.941407-.003906 1.417969-.003906 56.6875 0 110.335938 22.304688 151.191406 62.894531 41.816406 41.539063 64.839844 96.605469 64.839844 155.058594v7.546875c0 34.464844-28.039062 62.5-62.5 62.5s-62.5-28.035156-62.5-62.5v-126.5h-40v20.203125c-14.308594-9.597656-31.511719-15.203125-50-15.203125-49.625 0-90 40.375-90 90v44c0 49.625 40.375 90 90 90 30.121094 0 56.828125-14.875 73.175781-37.660156 18.8125 22.972656 47.382813 37.660156 79.324219 37.660156 56.519531 0 102.5-45.980469 102.5-102.5v-7.546875c0-34.894531-6.9375-68.84375-20.617188-100.902344zm-184.382812 120.949219c0 27.570312-22.429688 50-50 50s-50-22.429688-50-50v-44c0-27.570312 22.429688-50 50-50s50 22.429688 50 50zm0 0"/></svg>