<svg id="_x31__x2C_5" enable-background="new 0 0 24 24" height="512" viewBox="0 0 24 24" width="512"  xmlns="http://www.w3.org/2000/svg">
<path  d="m12 10c-2.206 0-4-1.794-4-4s1.794-4 4-4 4 1.794 4 4-1.794 4-4 4zm0-6.5c-1.379 0-2.5 1.121-2.5 2.5s1.121 2.5 2.5 2.5 2.5-1.121 2.5-2.5-1.121-2.5-2.5-2.5z"/>
<path d="m19.25 20c-.414 0-.75-.336-.75-.75v-2.5c0-1.792-1.458-3.25-3.25-3.25h-6.5c-1.792 0-3.25 1.458-3.25 3.25v2.5c0 .414-.336.75-.75.75s-.75-.336-.75-.75v-2.5c0-2.619 2.131-4.75 4.75-4.75h6.5c2.619 0 4.75 2.131 4.75 4.75v2.5c0 .414-.336.75-.75.75z"/></svg>